<?xml version="1.0" standalone="no"?>
<!DOCTYPE svg PUBLIC "-//W3C//DTD SVG 20010904//EN"
 "http://www.w3.org/TR/2001/REC-SVG-20010904/DTD/svg10.dtd">
<svg version="1.0" xmlns="http://www.w3.org/2000/svg"
 width="749.000000pt" height="749.000000pt" viewBox="0 0 749.000000 749.000000"
 preserveAspectRatio="xMidYMid meet">

<g transform="translate(0.000000,749.000000) scale(0.100000,-0.100000)"
fill="#000000" stroke="none">
<path d="M1920 4870 l0 -220 -222 -2 -223 -3 -3 -332 -2 -333 -225 0 -225 0 0
-270 0 -270 225 0 225 0 0 -335 0 -335 220 0 220 0 0 -225 0 -225 275 0 275 0
0 555 0 555 633 0 c347 0 926 -3 1285 -7 l653 -6 -3 -554 -3 -553 273 0 272 0
0 220 0 220 225 0 225 0 0 335 0 335 225 0 225 0 0 268 0 269 -152 6 c-83 4
-183 7 -223 7 l-71 0 4 330 4 330 -226 0 -226 0 0 225 0 225 -269 0 -268 0 -7
-61 c-3 -34 -6 -284 -6 -555 l0 -494 -407 0 c-225 0 -803 3 -1285 7 l-877 6 6
554 6 553 -276 0 -277 0 0 -220z m442 -433 l-2 -554 457 -6 c252 -4 875 -7
1384 -7 l926 0 6 362 c4 199 7 448 7 555 l0 193 170 0 170 0 0 -225 0 -225
220 0 220 0 2 -332 3 -333 223 -3 222 -2 0 -170 0 -170 -225 0 -225 0 0 -336
0 -336 -222 3 -223 4 -3 -222 -2 -223 -170 0 -170 0 0 553 0 554 -242 6 c-133
4 -756 7 -1385 7 l-1143 0 0 -555 0 -555 -175 0 -175 0 0 225 0 225 -220 0
-220 0 0 335 0 335 -220 0 -220 0 0 170 0 170 220 0 220 0 0 335 0 335 225 0
225 0 0 220 0 220 173 0 172 0 -3 -553z"/>
<path d="M3365 5016 c-39 -17 -70 -52 -90 -98 -12 -31 -15 -87 -15 -320 0
-254 2 -287 19 -323 34 -75 85 -105 176 -105 136 0 194 71 195 238 l0 93 -62
-3 -63 -3 -3 -85 c-2 -72 -6 -88 -23 -102 -28 -24 -62 -23 -85 3 -18 20 -19
40 -19 289 0 249 1 269 19 289 23 26 57 27 85 4 17 -15 21 -31 23 -88 l3 -70
63 -3 62 -3 0 78 c-1 113 -38 184 -113 212 -39 15 -136 13 -172 -3z"/>
<path d="M3885 5011 c-48 -22 -69 -44 -90 -94 -12 -30 -15 -87 -15 -317 0
-294 4 -324 48 -374 48 -54 171 -72 247 -37 48 22 69 44 90 94 12 30 15 87 15
319 0 253 -2 287 -19 323 -10 22 -27 48 -37 57 -55 49 -167 62 -239 29z m136
-120 l24 -19 0 -272 0 -272 -24 -19 c-13 -10 -31 -19 -41 -19 -10 0 -28 9 -41
19 l-24 19 0 272 0 272 24 19 c13 10 31 19 41 19 10 0 28 -9 41 -19z"/>
<path d="M3050 3189 c-43 -17 -80 -61 -95 -113 -21 -71 -21 -491 0 -562 25
-84 82 -124 179 -124 71 0 133 33 160 85 18 35 21 61 24 203 l3 162 -95 0 -96
0 0 -55 0 -55 35 0 35 0 0 -88 c0 -105 -13 -132 -65 -132 -62 0 -65 13 -65
285 0 272 3 285 65 285 46 0 65 -29 65 -97 l0 -53 61 0 62 0 -5 74 c-6 95 -30
143 -88 173 -47 25 -133 30 -180 12z"/>
<path d="M3420 3187 c0 -1 34 -104 75 -227 l75 -225 0 -167 0 -168 65 0 65 0
0 173 0 173 70 209 c39 115 70 215 70 222 0 9 -18 13 -59 13 l-60 0 -16 -57
c-9 -32 -28 -96 -42 -143 l-26 -85 -41 142 -41 143 -67 0 c-38 0 -68 -1 -68
-3z"/>
<path d="M3960 2795 l0 -395 55 0 55 0 1 278 1 277 42 -275 41 -275 55 0 55 0
41 275 42 275 1 -277 1 -278 60 0 60 0 0 395 0 395 -89 0 -89 0 -10 -72 c-6
-40 -23 -162 -38 -271 -15 -108 -28 -196 -30 -195 -3 3 -74 511 -74 529 0 5
-40 9 -90 9 l-90 0 0 -395z"/>
</g>
</svg>
